<?xml version="1.0" standalone="no"?>
<!DOCTYPE svg PUBLIC "-//W3C//DTD SVG 20010904//EN"
 "http://www.w3.org/TR/2001/REC-SVG-20010904/DTD/svg10.dtd">
<svg version="1.0" xmlns="http://www.w3.org/2000/svg"
 width="1280.000000pt" height="1280.000000pt" viewBox="0 0 1280.000000 1280.000000"
 preserveAspectRatio="xMidYMid meet">
<metadata>
Created by potrace 1.11, written by Peter Selinger 2001-2013
</metadata>
<g transform="translate(0.000000,1280.000000) scale(0.100000,-0.100000)"
fill="#000000" stroke="none">
<path d="M10530 12788 c-61 -7 -130 -15 -205 -24 -27 -3 -61 -7 -75 -9 -14 -1
-52 -6 -85 -10 -33 -4 -73 -9 -90 -11 -16 -2 -50 -5 -75 -8 -81 -8 -161 -17
-183 -22 -12 -2 -44 -7 -72 -10 -76 -7 -100 -10 -230 -28 -66 -9 -137 -19
-157 -21 -69 -9 -113 -15 -138 -20 -14 -3 -51 -7 -84 -10 -33 -4 -62 -8 -66
-10 -6 -4 -109 -17 -147 -18 -13 -1 -23 -3 -23 -6 0 -4 -15 -6 -33 -7 -17 0
-50 -4 -72 -8 -22 -4 -53 -9 -68 -11 -15 -2 -47 -7 -70 -10 -38 -5 -110 -17
-184 -30 -16 -3 -48 -8 -73 -11 -25 -3 -47 -8 -50 -9 -3 -2 -33 -7 -65 -10
-33 -4 -62 -9 -65 -10 -3 -2 -26 -6 -50 -10 -25 -3 -65 -11 -89 -16 -24 -5
-46 -7 -49 -4 -3 2 -10 1 -16 -4 -6 -5 -33 -12 -61 -15 -27 -3 -61 -8 -75 -11
-32 -7 -67 -13 -105 -20 -25 -5 -89 -17 -205 -40 -14 -3 -38 -8 -55 -11 -16
-3 -50 -10 -75 -15 -25 -6 -56 -12 -70 -14 -14 -3 -36 -7 -50 -10 -14 -3 -36
-8 -50 -11 -14 -3 -36 -7 -50 -10 -14 -3 -34 -7 -45 -9 -11 -3 -38 -9 -60 -14
-36 -9 -62 -15 -120 -27 -11 -2 -67 -15 -125 -29 -145 -35 -142 -35 -170 -40
-14 -3 -50 -12 -80 -20 -30 -9 -64 -18 -75 -20 -11 -3 -29 -7 -40 -9 -11 -3
-94 -25 -185 -51 -91 -25 -172 -47 -180 -49 -35 -9 -136 -38 -150 -43 -8 -3
-19 -7 -25 -8 -5 -1 -13 -3 -17 -5 -5 -1 -11 -3 -15 -4 -19 -5 -190 -58 -203
-63 -20 -8 -20 -8 -55 -18 -16 -4 -36 -12 -42 -18 -7 -5 -13 -6 -13 -3 0 4 -9
2 -21 -4 -11 -7 -33 -14 -47 -16 -15 -3 -33 -11 -41 -17 -8 -7 -16 -11 -18 -9
-1 1 -4 2 -5 1 -2 0 -13 -2 -26 -5 -13 -2 -36 -11 -53 -19 -16 -9 -29 -13 -29
-10 0 3 -10 0 -22 -7 -13 -6 -27 -13 -33 -14 -18 -4 -79 -26 -110 -39 -16 -7
-59 -23 -95 -36 -36 -12 -68 -27 -71 -32 -3 -5 -8 -8 -10 -7 -9 5 -89 -24 -89
-32 0 -5 -4 -7 -8 -4 -5 3 -20 -1 -35 -9 -15 -8 -27 -11 -27 -8 0 3 -8 -2 -19
-11 -10 -9 -28 -18 -40 -19 -11 -1 -21 -5 -21 -9 0 -4 -6 -8 -14 -8 -55 0
-880 -417 -894 -452 -2 -4 -12 -8 -23 -8 -10 0 -19 -5 -19 -10 0 -6 -10 -14
-23 -19 -20 -8 -75 -41 -113 -68 -21 -16 -49 -33 -64 -40 -8 -4 -17 -9 -20
-13 -3 -4 -34 -26 -70 -50 -36 -24 -71 -50 -78 -57 -7 -7 -17 -13 -21 -13 -4
0 -16 -8 -27 -17 -10 -10 -46 -38 -79 -63 -185 -139 -439 -372 -578 -530 -27
-30 -58 -66 -71 -80 -12 -14 -42 -51 -66 -82 -25 -32 -48 -58 -52 -58 -5 0 -8
-6 -8 -14 0 -8 -3 -16 -7 -18 -15 -6 -145 -198 -135 -198 4 0 -1 -5 -10 -11
-10 -5 -18 -14 -18 -19 0 -5 -15 -33 -34 -62 -18 -30 -51 -87 -72 -128 -20
-41 -42 -78 -48 -82 -6 -4 -8 -8 -3 -8 4 0 -6 -26 -22 -58 -28 -55 -80 -176
-85 -197 -1 -5 -10 -28 -20 -50 -10 -22 -18 -48 -19 -57 -1 -10 -4 -18 -7 -18
-4 0 -7 -6 -7 -12 0 -7 -11 -49 -25 -93 -26 -82 -66 -243 -74 -299 -2 -17 -6
-42 -9 -56 -18 -78 -34 -199 -39 -296 -2 -22 -5 -45 -8 -50 -5 -8 -3 -579 2
-579 1 0 4 -22 6 -50 2 -27 7 -66 10 -85 4 -19 8 -48 9 -65 4 -42 20 -151 30
-200 2 -11 7 -36 10 -55 16 -89 98 -412 115 -455 5 -11 12 -33 16 -50 4 -16 8
-34 10 -40 1 -5 25 -75 54 -155 28 -80 52 -149 54 -155 2 -5 8 -21 13 -35 6
-14 9 -28 6 -32 -2 -5 0 -8 5 -8 6 0 13 -12 17 -27 3 -16 13 -41 20 -58 7 -16
28 -66 45 -110 18 -44 37 -91 43 -105 6 -14 11 -27 12 -30 0 -3 8 -21 17 -40
19 -41 31 -72 32 -82 1 -4 7 -13 14 -20 6 -6 12 -18 12 -25 0 -8 14 -40 30
-73 17 -33 31 -63 31 -67 1 -5 10 -28 21 -53 12 -25 29 -63 38 -85 10 -22 35
-76 55 -120 20 -44 38 -84 39 -90 3 -9 14 -36 56 -130 9 -22 39 -89 65 -150
26 -60 56 -129 66 -152 11 -24 19 -49 19 -56 0 -7 4 -17 9 -22 5 -6 23 -50 40
-100 18 -49 39 -102 47 -117 8 -15 14 -30 14 -33 -1 -5 65 -214 77 -245 3 -8
8 -24 10 -35 2 -11 8 -31 13 -45 6 -14 12 -34 14 -45 2 -11 11 -47 19 -80 9
-33 18 -72 21 -87 4 -16 8 -40 11 -55 9 -42 14 -66 18 -88 3 -11 8 -42 11 -70
4 -27 9 -62 12 -78 18 -110 27 -465 14 -537 -4 -25 -10 -61 -13 -80 -7 -57
-37 -169 -68 -259 -33 -95 -138 -311 -151 -311 -4 0 -8 -9 -8 -19 0 -11 -3
-21 -7 -23 -5 -1 -26 -30 -48 -63 -22 -33 -42 -62 -45 -65 -3 -3 -27 -34 -55
-70 -27 -36 -63 -79 -80 -96 -16 -17 -46 -49 -66 -70 -80 -86 -247 -231 -343
-299 -16 -11 -40 -29 -55 -40 -43 -34 -110 -75 -121 -75 -5 0 -10 -4 -10 -10
0 -5 -15 -17 -32 -25 -18 -8 -46 -23 -63 -33 -16 -10 -55 -32 -85 -48 -30 -16
-58 -33 -61 -37 -3 -5 -8 -8 -10 -6 -2 1 -40 -15 -84 -36 -44 -21 -82 -39 -85
-39 -3 -1 -11 -5 -18 -9 -6 -5 -12 -5 -12 -1 0 4 -8 0 -17 -8 -16 -14 -63 -30
-79 -27 -4 0 -10 -5 -14 -11 -7 -12 2 -31 52 -108 10 -15 24 -40 33 -57 8 -16
42 -74 75 -128 33 -55 60 -101 60 -103 0 -3 5 -10 11 -17 10 -12 217 -359 267
-447 14 -25 28 -47 31 -50 3 -3 13 -18 21 -35 8 -16 29 -51 45 -77 48 -74 69
-112 67 -120 -1 -5 3 -8 8 -8 6 0 10 -5 10 -11 0 -6 14 -30 30 -54 17 -24 30
-48 30 -54 0 -6 5 -11 10 -11 6 0 10 -4 10 -9 0 -5 17 -37 37 -71 l36 -62 66
70 c58 61 118 128 191 212 12 14 34 40 48 59 15 19 32 39 37 45 6 6 29 36 52
66 24 30 49 62 58 71 8 9 15 20 15 26 0 6 7 13 15 17 8 3 15 12 15 21 0 8 4
15 8 15 5 0 20 17 33 37 14 21 55 82 92 136 37 54 67 102 67 108 0 5 3 9 8 9
4 0 16 17 27 38 11 20 22 39 26 42 3 3 9 12 13 20 8 17 24 44 48 80 23 36 75
127 101 180 12 25 25 47 29 50 11 9 208 418 208 434 0 8 4 16 8 18 18 7 201
476 289 743 50 148 104 321 109 340 1 6 9 36 19 69 9 32 18 64 20 70 1 6 5 18
8 26 4 8 8 24 10 35 1 11 6 25 10 32 4 6 9 24 12 40 2 15 8 44 14 63 5 19 22
80 36 135 15 55 31 116 36 135 6 19 11 44 13 55 2 11 4 20 6 20 1 0 3 9 5 20
1 11 8 40 14 65 6 25 14 54 16 65 9 36 14 59 28 118 8 31 12 57 9 57 -2 0 1 7
8 15 7 8 10 15 6 15 -3 0 -2 10 3 23 5 13 12 41 15 63 4 21 9 47 12 56 3 9 7
27 10 40 11 52 14 64 20 88 3 14 6 35 7 48 1 12 4 22 7 22 4 0 7 6 7 13 0 6 5
32 11 56 6 25 9 49 6 53 -3 4 -1 8 3 8 5 0 10 10 11 23 2 23 5 36 15 77 4 14
23 99 43 190 20 91 38 174 41 185 2 11 6 31 9 45 3 14 7 32 9 40 2 8 4 15 5
15 2 0 7 24 15 70 4 22 9 43 12 47 2 5 6 18 8 30 7 37 68 300 90 388 3 8 12
44 21 80 9 36 18 74 20 85 1 11 19 81 39 155 21 74 39 142 41 150 2 8 20 71
39 140 20 69 37 130 39 135 17 67 153 489 202 623 18 50 30 92 26 92 -4 0 -2
4 4 8 5 4 21 36 34 72 13 36 30 81 39 100 8 19 15 40 17 45 2 12 74 184 110
263 13 29 24 55 24 57 0 3 26 58 57 122 32 65 58 120 58 123 1 9 186 363 211
401 13 21 24 43 24 49 0 5 4 10 9 10 5 0 12 11 15 25 4 14 11 25 16 25 6 0 10
5 10 11 0 12 89 162 127 215 16 21 33 49 40 64 4 8 9 17 12 20 4 3 31 42 61
88 29 45 58 82 62 82 4 0 8 7 8 15 0 8 5 15 10 15 6 0 10 6 10 13 0 6 13 26
28 44 15 17 46 57 69 90 24 32 53 70 65 85 13 16 39 49 58 74 19 26 47 60 63
76 15 16 27 31 27 34 0 3 6 11 13 18 6 7 35 39 62 71 28 32 55 63 60 69 6 6
27 30 47 53 20 23 39 39 42 35 3 -3 6 0 6 7 0 6 12 24 28 40 267 275 427 431
443 431 5 0 9 4 9 8 0 5 36 39 81 78 45 38 96 83 115 99 46 41 84 72 185 152
47 37 103 82 124 98 21 17 45 34 54 39 9 5 18 12 21 16 5 7 200 148 228 165 9
6 25 18 36 27 33 29 31 11 -2 -24 -54 -57 -95 -102 -152 -168 -30 -35 -66 -76
-80 -91 -33 -36 -62 -71 -108 -128 -20 -25 -43 -53 -52 -62 -8 -9 -27 -31 -42
-50 -14 -19 -36 -45 -47 -58 -12 -13 -21 -27 -21 -30 0 -3 -13 -19 -28 -36
-31 -33 -236 -304 -292 -385 -19 -28 -41 -58 -47 -65 -7 -7 -13 -18 -13 -24 0
-6 -4 -11 -10 -11 -5 0 -10 -6 -10 -14 0 -8 -7 -16 -15 -20 -8 -3 -15 -12 -15
-21 0 -8 -4 -15 -10 -15 -5 0 -10 -5 -10 -11 0 -6 -13 -28 -30 -49 -16 -21
-30 -41 -30 -45 0 -4 -13 -25 -28 -48 -61 -89 -112 -168 -112 -172 0 -3 -16
-29 -35 -59 -19 -30 -35 -60 -35 -66 0 -5 -4 -10 -9 -10 -5 0 -12 -11 -15 -24
-3 -14 -12 -31 -19 -38 -7 -7 -18 -24 -24 -38 -7 -14 -29 -54 -49 -90 -78
-139 -240 -469 -236 -482 1 -5 -3 -8 -10 -8 -6 0 -8 -3 -5 -6 3 -4 0 -16 -8
-28 -8 -11 -15 -28 -15 -37 0 -9 -6 -22 -14 -28 -12 -10 -27 -57 -25 -77 0 -4
-3 -10 -8 -13 -9 -5 -51 -109 -118 -286 -14 -38 -31 -83 -38 -100 -6 -16 -12
-34 -13 -40 -1 -5 -25 -77 -52 -160 -28 -82 -57 -175 -65 -205 -9 -30 -24 -85
-35 -122 -10 -37 -17 -70 -14 -73 3 -3 0 -5 -6 -5 -7 0 -11 -3 -10 -7 2 -9
-16 -99 -22 -105 -1 -2 -3 -10 -5 -18 -2 -8 -6 -25 -9 -37 -3 -13 -8 -32 -11
-44 -2 -11 -7 -29 -10 -39 -3 -10 -8 -29 -11 -42 -3 -13 -6 -27 -8 -33 -2 -5
-7 -28 -11 -50 -12 -55 -12 -55 -15 -57 -1 -2 -3 -10 -5 -18 -5 -28 -29 -135
-31 -145 -3 -9 -6 -25 -18 -87 -9 -41 -15 -69 -20 -86 -3 -9 -8 -30 -11 -47
-2 -16 -7 -41 -10 -55 -3 -14 -8 -36 -10 -50 -4 -24 -7 -38 -19 -90 -3 -14 -8
-36 -10 -50 -2 -14 -15 -83 -29 -155 -33 -165 -38 -195 -42 -220 -1 -11 -3
-20 -4 -20 -1 0 -4 -12 -6 -26 -4 -34 -13 -87 -20 -119 -2 -13 -7 -42 -11 -64
-3 -22 -7 -43 -9 -47 -4 -5 -7 -20 -20 -101 -9 -49 -14 -80 -20 -108 -3 -14
-10 -52 -15 -85 -5 -33 -12 -71 -15 -85 -13 -56 -17 -76 -19 -100 -2 -14 -6
-41 -10 -60 -4 -19 -9 -44 -11 -55 -2 -11 -4 -20 -5 -20 -1 0 -3 -11 -5 -25
-2 -14 -6 -36 -8 -50 -20 -105 -58 -300 -62 -320 -3 -14 -8 -41 -11 -60 -3
-19 -8 -44 -11 -55 -8 -23 -9 -28 -17 -77 -3 -21 -15 -79 -26 -130 -10 -51
-21 -104 -24 -118 -2 -14 -16 -77 -31 -140 -14 -63 -28 -124 -30 -135 -2 -11
-6 -29 -8 -40 -3 -11 -20 -83 -37 -160 -17 -77 -34 -149 -36 -160 -3 -11 -7
-29 -10 -40 -2 -11 -22 -90 -43 -175 -22 -85 -37 -158 -35 -162 3 -4 0 -8 -5
-8 -6 0 -10 -3 -9 -7 2 -7 -14 -84 -28 -135 -4 -13 0 -16 18 -13 13 2 50 6 83
9 71 7 127 14 175 22 35 5 54 8 140 19 25 3 61 9 80 12 19 4 50 7 67 7 18 1
33 3 33 6 0 3 8 6 18 7 9 0 37 4 62 7 25 4 54 8 65 10 11 1 34 5 50 9 17 3 46
9 65 11 45 7 83 14 146 27 28 5 64 12 80 15 16 3 36 7 44 9 8 2 31 7 50 10 19
3 55 11 80 16 25 6 54 13 65 15 11 2 31 6 45 9 14 4 36 8 50 11 14 3 43 10 65
16 22 5 51 12 65 15 14 2 58 13 98 24 39 10 107 28 150 40 42 11 109 29 147
41 39 11 77 22 85 23 8 2 16 4 18 5 1 2 7 4 12 5 6 1 12 4 15 5 3 1 8 3 13 4
32 8 144 44 227 73 55 19 105 35 110 37 6 1 24 7 40 13 17 7 73 28 125 47 114
42 212 81 260 104 19 9 37 17 40 17 18 5 79 32 200 88 36 17 68 30 73 29 4 -1
7 2 7 8 0 6 3 9 8 8 12 -3 92 36 92 45 0 4 5 5 10 2 6 -3 10 -1 10 4 0 6 3 10
8 9 4 -1 23 6 42 16 104 56 159 85 195 106 22 13 60 35 85 49 25 14 51 31 58
38 7 7 20 13 28 13 8 0 14 5 14 10 0 6 6 10 13 10 7 0 23 9 34 19 12 11 24 17
27 14 3 -4 6 -1 6 5 0 7 5 12 10 12 11 0 142 89 151 103 3 5 9 8 13 8 3 -1 12
3 19 9 6 5 64 49 128 98 171 129 269 214 413 358 144 143 212 219 314 349 34
44 68 87 75 95 7 8 23 32 36 53 12 20 27 37 32 37 6 0 8 4 5 9 -4 5 -3 11 1
13 10 4 62 82 82 121 7 15 17 27 22 27 5 0 9 5 9 11 0 6 15 37 34 68 64 105
178 342 222 461 13 36 28 74 34 85 24 52 113 356 134 460 1 6 5 19 9 30 3 11
9 38 12 60 4 22 9 54 12 70 2 17 6 41 8 55 2 14 6 40 9 58 12 69 17 99 21 147
3 28 7 66 9 85 23 173 24 758 1 996 -3 27 -8 85 -11 129 -9 145 -21 283 -29
335 -2 19 -7 62 -10 95 -3 33 -7 76 -9 95 -2 19 -7 64 -10 100 -4 36 -8 76
-11 89 -2 13 -7 53 -10 88 -3 36 -7 68 -9 72 -2 3 -7 38 -10 76 -4 39 -9 84
-11 100 -9 63 -16 112 -21 155 -3 25 -7 56 -9 70 -2 14 -7 54 -10 90 -9 80
-13 115 -15 115 -3 0 -8 40 -14 110 -2 33 -5 60 -6 60 -1 0 -4 23 -15 115 -3
30 -8 71 -11 90 -10 81 -12 98 -18 160 -7 65 -10 97 -21 180 -7 59 -14 131
-20 205 -2 33 -7 83 -10 110 -9 90 -18 218 -31 445 -13 239 -7 638 12 830 11
105 12 115 14 115 0 0 3 18 5 40 2 22 6 56 10 75 3 19 8 49 11 65 3 17 7 37 9
45 2 8 7 31 10 50 3 19 8 42 11 51 2 10 6 30 8 45 3 16 9 41 14 55 6 15 8 30
5 33 -4 3 -1 6 5 6 7 0 11 3 10 8 -5 23 68 223 115 317 17 33 30 63 29 68 -1
4 2 7 6 7 4 0 14 16 21 35 7 19 17 35 22 35 5 0 9 6 9 13 0 7 8 22 18 33 10
10 21 26 24 35 7 19 2 19 -92 7z"/>
</g>
</svg>
